<?xml version="1.0" encoding="UTF-8" standalone="no"?>
<!-- Created with Inkscape (http://www.inkscape.org/) -->

<svg
   xmlns:dc="http://purl.org/dc/elements/1.1/"
   xmlns:cc="http://creativecommons.org/ns#"
   xmlns:rdf="http://www.w3.org/1999/02/22-rdf-syntax-ns#"
   xmlns:svg="http://www.w3.org/2000/svg"
   xmlns="http://www.w3.org/2000/svg"
   xmlns:sodipodi="http://sodipodi.sourceforge.net/DTD/sodipodi-0.dtd"
   xmlns:inkscape="http://www.inkscape.org/namespaces/inkscape"
   width="200"
   height="200"
   id="svg2"
   version="1.1"
   inkscape:version="0.92.3 (2405546, 2018-03-11)"
   sodipodi:docname="m.svg">
  <defs
     id="defs4" />
  <sodipodi:namedview
     id="base"
     pagecolor="#ffffff"
     bordercolor="#666666"
     borderopacity="1.0"
     inkscape:pageopacity="0.0"
     inkscape:pageshadow="2"
     inkscape:zoom="3.959798"
     inkscape:cx="214.61521"
     inkscape:cy="84.0007"
     inkscape:document-units="px"
     inkscape:current-layer="layer1"
     showgrid="false"
     inkscape:window-width="2560"
     inkscape:window-height="1384"
     inkscape:window-x="0"
     inkscape:window-y="0"
     inkscape:window-maximized="1" />
  <metadata
     id="metadata7">
    <rdf:RDF>
      <cc:Work
         rdf:about="">
        <dc:format>image/svg+xml</dc:format>
        <dc:type
           rdf:resource="http://purl.org/dc/dcmitype/StillImage" />
        <dc:title />
      </cc:Work>
    </rdf:RDF>
  </metadata>
  <g
     inkscape:label="Layer 1"
     inkscape:groupmode="layer"
     id="layer1"
     transform="translate(-0.48996735,-0.78913116)">
    <circle
       style="fill:#000000;stroke-width:0.38043475"
       id="path2985"
       cx="100.48997"
       cy="100.78913"
       r="100" />
    <path
       style="fill:#ffffff;stroke-width:0.38043475"
       id="path3013"
       d="m 48.898032,123.52897 c -2.86246,-1.7109 -5.84348,-3.12354 -9.05525,-4.02542 -2.54966,-0.58737 -5.18239,-0.8124 -7.78391,-0.5395 -1.47654,0.24032 -2.79315,0.87445 -4.0852,1.59422 -0.47075,0.26222 -1.8683,1.07476 -1.3992,0.80961 7.09956,-4.01309 8.96269,-5.3452 5.39723,-2.90441 -3.52551,2.49524 -5.14688,6.19529 -6.31862,10.20796 -1.31719,4.90388 -1.16691,9.77093 0.14779,14.63073 0.92874,3.2289 2.2603,6.34641 4.80605,8.60754 2.02017,2.02111 3.53627,2.31527 6.303,1.94464 6.04802,-1.08083 11.66016,-3.64252 17.17984,-6.24016 -2.36716,1.44923 9.46773,-5.02143 7.06138,-3.84235 -1.57636,0.7724 -2.90466,2.12073 -4.606,2.5531 -1.28736,0.32717 2.22989,-1.44593 3.30715,-2.22301 2.97997,-2.1496 3.46369,-2.71745 6.2262,-5.193 7.599961,-7.13367 13.312341,-15.85209 18.887391,-24.57541 5.91996,-9.98892 11.426,-20.231511 16.709157,-30.571331 3.95611,-7.36811 7.39102,-14.983262 10.43293,-22.767972 2.46428,-6.11796 5.12318,-12.14959 7.36809,-18.35261 1.14375,-3.84051 2.59777,-7.63865 3.27575,-11.60313 2.88821,-1.28295 5.64699,-2.90992 8.66462,-3.84884 0.43428,-0.13512 -0.29919,0.85906 -0.4428,1.29064 -0.25803,0.77537 -0.51601,1.55082 -0.76207,2.33007 -1.24322,3.9373 -2.25889,7.9106 -3.24553,11.91903 -2.6325,11.51391 -4.82102,23.12181 -7.24912,34.679782 -2.78309,11.91447 -4.60222,23.998591 -6.00087,36.143101 -0.80576,8.94655 -1.53431,17.94533 -1.2774,26.93512 0.11372,1.14874 0.51148,6.63197 2.99992,5.83653 0.40773,-0.13034 0.73395,-0.44069 1.10092,-0.66104 -2.19778,1.18981 -4.25025,2.70005 -6.59335,3.56941 -0.92486,0.34315 1.51622,-1.26497 2.22674,-1.94926 0.94328,-0.90845 1.85031,-1.85517 2.73045,-2.8249 3.80625,-4.19369 7.17232,-8.73855 10.56967,-13.26072 8.46959,-11.64098 16.03691,-23.90225 22.79469,-36.605871 3.89782,-7.7987 7.62721,-15.7303 9.86606,-24.179542 0.17097,-0.8313 0.35587,-1.65986 0.51294,-2.4939 0.11671,-0.61977 0.2096,-1.24381 0.30829,-1.8667 0.0567,-0.35773 0.11466,-0.71546 0.15783,-1.07508 0.007,-0.0571 -0.0606,-0.1489 -0.008,-0.17247 9.01642,-4.04653 9.29128,-6.54714 8.04475,-2.103 -1.68879,8.10906 -3.23953,16.247132 -4.80683,24.380542 -1.98217,10.06629 -3.87709,20.150211 -5.29066,30.313631 -1.04614,6.41019 -1.77716,12.85703 -2.13889,19.34052 -0.0965,3.56515 0.16479,7.0573 2.18009,10.07861 1.63105,2.23295 3.89204,2.9677 6.55884,2.99869 1.74084,-0.17668 3.38149,-0.67747 4.93158,-1.49029 0.64526,-0.33835 2.52592,-1.45153 1.87799,-1.1183 -6.44324,3.31375 -8.24809,5.0349 -4.33447,1.77054 3.36955,-3.12012 6.6593,-6.34781 9.71318,-9.78014 1.67084,-1.99888 3.24779,-4.09084 4.65711,-6.28385 0.15872,-0.30352 0.31745,-0.60704 0.47617,-0.91055 0,0 8.79234,-3.99551 8.79234,-3.99551 v 0 c -0.14674,0.33359 -0.29348,0.66717 -0.44022,1.00076 -1.33398,2.30416 -3.03308,4.38103 -4.67225,6.46933 -3.02198,3.51554 -6.422,6.69598 -9.73274,9.93474 -4.68274,4.15059 -1.6684,1.67303 -11.86638,7.77828 -2.21104,1.32367 -4.61338,2.20477 -7.21103,2.23 -2.91073,-0.29259 -5.31992,-1.27729 -7.05439,-3.74915 -2.07612,-3.2514 -2.49234,-6.86697 -2.33863,-10.68258 0.39192,-6.54123 1.15164,-13.04523 2.28492,-19.50177 1.50642,-10.18264 3.42342,-20.29397 5.3737,-30.399551 1.49416,-8.0667 3.04491,-16.123602 4.40066,-24.215242 0.80369,-4.90683 -0.1306,-1.86296 9.25174,-6.54555 0.12824,-0.064 0.05,0.28698 0.03,0.42889 -0.053,0.37562 -0.17214,0.73902 -0.24721,1.11086 -0.12929,0.64036 -0.23689,1.28496 -0.3659,1.92537 -0.17238,0.8558 -0.35883,1.7087 -0.53823,2.56306 -2.28311,8.59674 -6.17059,16.623092 -10.15371,24.547042 -6.79161,12.704341 -14.37433,24.971891 -22.71831,36.719811 -3.31345,4.49838 -6.5987,9.01881 -10.26129,13.24487 -0.26665,0.30766 -3.93899,4.39125 -4.67514,4.87591 -3.19556,2.10385 -6.58854,3.89132 -9.88282,5.83698 -0.48659,0.0771 -0.96937,0.27857 -1.45979,0.23142 -2.99037,-0.28754 -3.20866,-4.97696 -3.43494,-7.02668 -0.1182,-9.0797 0.73199,-18.15499 1.50841,-27.19207 1.40919,-12.17761 3.23912,-24.296781 6.02255,-36.245751 2.39991,-11.534302 4.58055,-23.111952 7.07947,-34.625352 0.90962,-3.97594 1.84205,-7.92813 2.95738,-11.85182 0.21428,-0.75384 0.4575,-1.4995 0.66045,-2.25648 0.11653,-0.43464 -0.0833,-1.0771 0.29756,-1.31681 2.81112,-1.7694 5.93579,-2.9831 8.90369,-4.47463 -1.00361,3.98733 -2.17477,7.92777 -3.45702,11.83442 -2.25859,6.22677 -4.92131,12.28072 -7.43402,18.40865 -3.06114,7.85165 -6.52608,15.52977 -10.5663,22.932532 -5.33183,10.35887 -10.884447,20.616591 -16.750337,30.681651 -5.51492,8.73315 -11.11047,17.49756 -18.5945,24.71616 -2.70053,2.5045 -3.2259,3.13183 -6.15991,5.30848 -6.741061,5.001 -14.304771,8.82829 -21.721571,12.71241 -5.64544,2.60784 -11.39631,5.21701 -17.59848,6.14994 -2.95844,0.15357 -4.70227,-0.45506 -6.78289,-2.59445 -2.56623,-2.48919 -4.0461,-5.69564 -4.97254,-9.12615 -1.36395,-5.00389 -1.62252,-10.00878 -0.36661,-15.09038 1.08327,-4.11984 2.52419,-8.03457 5.97648,-10.77266 4.30594,-3.12852 1.31926,-1.02627 10.98084,-6.63611 1.78861,-1.03852 3.67871,-1.87638 5.75773,-2.08786 2.68825,-0.1244 5.38313,0.083 7.98047,0.83115 3.2564,1.03679 6.29357,2.55363 9.26875,4.22716 0,0 -8.14541,5.21542 -8.14541,5.21542 z"
       inkscape:connector-curvature="0" />
  </g>
</svg>
